<?xml version="1.0" encoding="utf-8"?>
<!-- Generator: Adobe Illustrator 19.1.0, SVG Export Plug-In . SVG Version: 6.00 Build 0)  -->
<!DOCTYPE svg PUBLIC "-//W3C//DTD SVG 1.0//EN" "http://www.w3.org/TR/2001/REC-SVG-20010904/DTD/svg10.dtd">
<svg version="1.0" id="Layer_1" xmlns="http://www.w3.org/2000/svg" xmlns:xlink="http://www.w3.org/1999/xlink" x="0px" y="0px"
	 viewBox="0 0 160 160" style="enable-background:new 0 0 160 160;" xml:space="preserve">
<style type="text/css">
	.st0{fill:#FFFFFF;}
	.st1{fill:#1E1E1E;}
</style>
<g>
	<path class="st0" d="M150.8,94.1c-23.4,23.4-61.4,23.4-84.9,0s-23.4-61.4,0-84.9c3.6-3.6,7.6-6.7,11.9-9.2
		C58.1,0.6,38.5,8.4,23.5,23.4c-31.3,31.3-31.3,81.9,0,113.2c31.3,31.3,81.9,31.3,113.2,0c15.1-15.1,22.8-34.6,23.4-54.3
		C157.5,86.5,154.5,90.5,150.8,94.1z"/>
</g>
<g>
	<g>
		<path class="st1" d="M19,76c2.2,0,4,1.8,4,4s-1.8,4-4,4s-4-1.8-4-4S16.8,76,19,76 M19,75c-2.8,0-5,2.2-5,5s2.2,5,5,5s5-2.2,5-5
			S21.8,75,19,75L19,75z"/>
	</g>
	<g>
		<circle class="st1" cx="19" cy="80" r="2"/>
	</g>
	<g>
		<path class="st1" d="M33,76c2.2,0,4,1.8,4,4s-1.8,4-4,4s-4-1.8-4-4S30.8,76,33,76 M33,75c-2.8,0-5,2.2-5,5s2.2,5,5,5s5-2.2,5-5
			S35.8,75,33,75L33,75z"/>
	</g>
	<g>
		<circle class="st1" cx="33" cy="80" r="2"/>
	</g>
</g>
</svg>
