<?xml version="1.0" encoding="utf-8"?>
<!-- Generator: Adobe Illustrator 19.1.0, SVG Export Plug-In . SVG Version: 6.00 Build 0)  -->
<!DOCTYPE svg PUBLIC "-//W3C//DTD SVG 1.0//EN" "http://www.w3.org/TR/2001/REC-SVG-20010904/DTD/svg10.dtd">
<svg version="1.0" id="Layer_1" xmlns="http://www.w3.org/2000/svg" xmlns:xlink="http://www.w3.org/1999/xlink" x="0px" y="0px"
	 viewBox="0 0 160 160" style="enable-background:new 0 0 160 160;" xml:space="preserve">
<style type="text/css">
	.st0{fill:#FFFFFF;}
	.st1{fill:#1E1E1E;}
</style>
<g>
	<circle class="st0" cx="80" cy="80" r="80"/>
</g>
<g>
	<g>
		<path class="st1" d="M73,76c2.2,0,4,1.8,4,4s-1.8,4-4,4s-4-1.8-4-4S70.8,76,73,76 M73,75c-2.8,0-5,2.2-5,5s2.2,5,5,5
			c2.8,0,5-2.2,5-5S75.8,75,73,75L73,75z"/>
	</g>
	<g>
		<circle class="st1" cx="73" cy="80" r="2"/>
	</g>
	<g>
		<path class="st1" d="M87,76c2.2,0,4,1.8,4,4s-1.8,4-4,4s-4-1.8-4-4S84.8,76,87,76 M87,75c-2.8,0-5,2.2-5,5s2.2,5,5,5s5-2.2,5-5
			S89.8,75,87,75L87,75z"/>
	</g>
	<g>
		<circle class="st1" cx="87" cy="80" r="2"/>
	</g>
</g>
</svg>
